<?xml version="1.0" encoding="utf-8"?>
<!-- Generator: Adobe Illustrator 20.0.0, SVG Export Plug-In . SVG Version: 6.00 Build 0)  -->
<svg version="1.1" id="Layer_1" xmlns="http://www.w3.org/2000/svg" xmlns:xlink="http://www.w3.org/1999/xlink" x="0px" y="0px"
	 viewBox="0 0 460.8 460.8" style="enable-background:new 0 0 460.8 460.8;" xml:space="preserve">
<style type="text/css">
	.st0{fill:#333130;}
</style>
<g>
	<g>
		<path class="st0" d="M140.9,302.6c1.8-11.6,2.9-18.6,12.7-28.3c9.7-9.7,16.7-10.8,28.3-12.7c14.2-2.2,33.5-5.3,54-25.7
			c20.4-20.4,23.5-39.8,25.7-54c1.8-11.6,2.9-18.6,12.7-28.3c9.7-9.7,16.7-10.8,28.3-12.7c14.2-2.2,33.5-5.3,54-25.7
			c20.4-20.4,23.5-39.8,25.7-54c1.8-11.6,2.9-18.6,12.7-28.3L362,0c-20.4,20.4-23.5,39.8-25.7,54c-1.8,11.6-2.9,18.6-12.7,28.3
			S306.9,93.1,295.3,95c-14.2,2.2-33.5,5.3-54,25.7c-20.4,20.4-23.5,39.8-25.7,54c-1.8,11.6-2.9,18.6-12.7,28.3
			c-9.7,9.7-16.7,10.8-28.3,12.7c-14.2,2.2-33.5,5.3-54,25.7c-20.4,20.4-23.5,39.8-25.7,54c-1.8,11.6-2.9,18.6-12.7,28.3
			c-9.7,9.7-16.7,10.8-28.3,12.7c-14.1,2.2-33.5,5.3-54,25.7L32.9,395c9.7-9.7,16.7-10.8,28.3-12.7c14.1-2.2,33.5-5.3,54-25.7
			C135.6,336.1,138.7,316.7,140.9,302.6z"/>
		<g>
			<path class="st0" d="M427.9,65.8c-20.4,20.4-23.5,39.8-25.7,54c-1.8,11.6-2.9,18.6-12.7,28.3s-16.7,10.8-28.3,12.7
				c-14.2,2.2-33.5,5.3-54,25.7c-20.4,20.4-23.5,39.8-25.7,54c-1.8,11.6-2.9,18.6-12.7,28.3c-9.7,9.7-16.7,10.8-28.3,12.7
				c-14.1,2.2-33.5,5.3-54,25.7c-20.4,20.4-23.5,39.8-25.7,54c-1.8,11.6-2.9,18.6-12.7,28.3s-16.7,10.8-28.3,12.7
				c-14.1,2.2-33.5,5.3-54,25.7l32.9,32.9c9.7-9.7,16.7-10.8,28.3-12.7c14.1-2.2,33.5-5.3,54-25.7s23.5-39.8,25.7-54
				c1.8-11.6,2.9-18.6,12.7-28.3c9.7-9.7,16.7-10.8,28.3-12.7c14.2-2.2,33.5-5.3,54-25.7c20.4-20.4,23.5-39.8,25.7-54
				c1.8-11.6,2.9-18.6,12.7-28.3c9.7-9.7,16.7-10.8,28.3-12.7c14.2-2.2,33.5-5.3,54-25.7c20.4-20.4,23.5-39.8,25.7-54
				c1.8-11.6,2.9-18.6,12.7-28.3L427.9,65.8z"/>
		</g>
	</g>
	<g>
		<path class="st0" d="M330.7,233.1c-16.3-12.6-31.5-15.4-43.2-17.2c-3.6,9.2-4.9,17.6-6,24.6c-1.3,8.3-2.3,14.2-6.3,20.5
			c1.3,0.2,2.5,0.4,3.7,0.6c11.6,1.8,18.6,2.9,28.3,12.7c3.8,3.8,6.3,7.2,8,10.5c8.6-14,10.6-26.9,12.2-37.1
			C328.3,242,329.1,237.4,330.7,233.1z"/>
		<path class="st0" d="M133.4,247.7c1.6,10.2,3.6,23,12.2,37.1c1.7-3.4,4.2-6.8,8-10.5c9.7-9.7,16.7-10.8,28.3-12.7
			c1.2-0.2,2.4-0.4,3.7-0.6c-4-6.3-5-12.2-6.3-20.5c-1.1-7.1-2.4-15.5-6-24.6c-11.8,1.9-26.9,4.6-43.2,17.2
			C131.7,237.4,132.5,242,133.4,247.7z"/>
		<path class="st0" d="M274.3,307.2c-15.9-15.9-31.2-21.3-43.9-24c-12.7,2.7-28,8-43.9,24c-3.1,3.1-5.9,6.3-8.2,9.3
			c13.1,7.5,25.2,9.4,34.8,10.9c6.9,1.1,12.2,1.9,17.3,4.5c5.2-2.5,10.4-3.4,17.3-4.5c9.6-1.5,21.7-3.4,34.8-10.9
			C280.1,313.5,277.4,310.3,274.3,307.2z"/>
		<path class="st0" d="M224.9,235.9c1.8,1.8,3.7,3.5,5.5,5.1c1.8-1.6,3.6-3.3,5.5-5.1c11.8-11.8,17.8-23.3,21.2-33.7
			c-9-9.3-10.2-16.3-11.9-27.6c-1.8-11.1-4-25.4-14.8-40.9c-10.8,15.5-13,29.8-14.8,40.9c-1.8,11.3-2.9,18.2-11.9,27.6
			C207.1,212.5,213.1,224,224.9,235.9z"/>
		<path class="st0" d="M38.4,181c20.4,20.4,39.8,23.5,54,25.7c8.8,1.4,15,2.4,21.7,7.1c16.7-13.1,32.8-18.3,45.4-20.9
			c-1.8-2.1-3.7-4.3-5.9-6.4c-20.4-20.4-39.8-23.5-54-25.7c-11.6-1.8-18.6-2.9-28.3-12.7s-10.8-16.7-12.7-28.3
			c-2.2-14.2-5.3-33.5-25.7-54L0,98.7c9.7,9.7,10.8,16.7,12.7,28.3C14.9,141.2,18,160.6,38.4,181z"/>
		<path class="st0" d="M378.5,323.6c-9.7-9.7-10.8-16.7-12.7-28.3c-1.7-10.9-4-25-14.3-40.2c-2.5,15.1-7.4,37.8-29.1,61.1
			c2.9,11.9,8.7,25.9,23.2,40.4c20.4,20.4,39.8,23.5,54,25.7c11.6,1.8,18.6,2.9,28.3,12.7l32.9-32.9c-20.4-20.4-39.8-23.5-54-25.7
			C395.2,334.5,388.2,333.4,378.5,323.6z"/>
		<path class="st0" d="M312.7,389.5c-9.7-9.7-10.8-16.7-12.7-28.3c-1-6.6-2.3-14.3-5.3-22.8c-17,9.6-32.5,12.1-43,13.8
			c-0.5,0.1-1,0.2-1.5,0.2c2.1,4.8,2.9,9.7,3.9,16.1c2.2,14.1,5.3,33.5,25.7,54c20.4,20.4,39.8,23.5,54,25.7
			c11.6,1.8,18.6,2.9,28.3,12.7l32.9-32.9c-20.4-20.4-39.8-23.5-54-25.7C329.4,400.3,322.4,399.2,312.7,389.5z"/>
		<path class="st0" d="M104.2,115.2c20.4,20.4,39.8,23.5,54,25.7c11.6,1.8,18.6,2.9,28.3,12.7c2.6,2.6,4.6,5,6.1,7.3
			c2.5-12.6,7.4-28.9,20.5-46c-18.1-15.3-35-18-47.7-20c-11.6-1.8-18.6-2.9-28.3-12.7c-9.7-9.7-10.8-16.7-12.7-28.3
			c-2.2-14.2-5.3-33.5-25.7-54L65.8,32.9c9.7,9.7,10.8,16.7,12.7,28.3C80.7,75.4,83.8,94.8,104.2,115.2z"/>
	</g>
</g>
</svg>
