<?xml version="1.0" encoding="utf-8"?>
<!-- Generator: Adobe Illustrator 20.0.0, SVG Export Plug-In . SVG Version: 6.00 Build 0)  -->
<svg version="1.1" id="Layer_1" xmlns="http://www.w3.org/2000/svg" xmlns:xlink="http://www.w3.org/1999/xlink" x="0px" y="0px"
	 viewBox="0 0 524 512" style="enable-background:new 0 0 524 512;" xml:space="preserve">
<style type="text/css">
	.st0{fill:#FFFFFF;}
	.st1{fill:#D1D1D1;}
	.st2{fill:#B2B2B2;}
	.st3{fill:#0E0C0F;}
	.st4{fill:#F0C854;}
	.st5{fill:#DDB84E;}
	.st6{fill:#F5D98A;}
</style>
<path class="st0" d="M473.9,79.4H50.1c-14.6,0-26.5,11.9-26.5,26.5v292.4h476.7V105.9C500.3,91.3,488.5,79.4,473.9,79.4z"/>
<path class="st1" d="M506.3,432.6H17.7c-9.8,0-17.7-7.9-17.7-17.7v-8.8c0-4.9,4-8.8,8.8-8.8h506.3c4.9,0,8.8,4,8.8,8.8v8.8
	C524,424.6,516.1,432.6,506.3,432.6z"/>
<path class="st2" d="M291.9,414.9h-59.7c-3.3,0-6.4-1.9-7.9-4.9l-6.4-12.8h88.3l-6.4,12.8C298.3,413,295.2,414.9,291.9,414.9z"/>
<path class="st3" d="M473.9,361.9c0,4.9-4,8.8-8.8,8.8H59c-4.9,0-8.8-4-8.8-8.8V114.8c0-4.9,4-8.8,8.8-8.8h406c4.9,0,8.8,4,8.8,8.8
	L473.9,361.9L473.9,361.9z"/>
<g>
	<path class="st0" d="M362.7,242.8c4.4-6.8,6.8-14.6,6.8-22.6c0-17.6-11.3-34-28.8-41.7c-6.5-2.8-11.4-8.3-13.3-14.6
		c-4.8-16.1-15.7-25.3-33.2-28.1c-14.6-2.3-28.4,2.8-35.8,13.2c-3,4.1-9.7,5.8-16.4,4c-5.3-1.4-10.8-2.1-16.4-2.2
		c-0.2,0-0.4,0-0.6,0c-24.7,0-45.2,14.1-48.7,33.7c-1.2,6.8-0.5,13.6,2.2,20.2c3.2,7.8,0.3,16.2-7.8,22.6
		c-10.4,8.1-16.1,18.8-16.1,30.1c0,15.1,20.5,25.8,37.7,32.1c10.6,3.9,17.6,11.4,19.1,20.6l0.1,0.5c3.3,18,21.1,30.7,42.8,30.7
		c0.7,0,1.5,0,2.2,0c16.4-0.7,32.2-8,42.1-19.8c3.1-3.6,8-5.6,12.3-5c7.5,1.1,15.1,0.5,22.7-1.8c17.5-5.5,30.9-20.4,33.3-37.2
		c1.2-8.6-0.3-17-4.4-24.3C360.5,249.9,360.7,246,362.7,242.8z"/>
	<path class="st4" d="M283.6,291.8c-28.4,0-51.5-23.1-51.5-51.5s23.1-51.5,51.5-51.5s51.5,23.1,51.5,51.5
		C335.1,268.7,312,291.8,283.6,291.8z"/>
	<path class="st5" d="M291.3,284.1c-28.4,0-51.5-23.1-51.5-51.5c0-12.3,4.3-23.5,11.5-32.4c-11.7,9.5-19.1,23.9-19.1,40
		c0,28.4,23.1,51.5,51.5,51.5c16.1,0,30.6-7.5,40-19.1C314.8,279.8,303.5,284.1,291.3,284.1z"/>
	<path class="st6" d="M296.7,240.3c-7.2,0-13.1-5.9-13.1-13.1s5.9-13.1,13.1-13.1s13.1,5.9,13.1,13.1
		C309.7,234.4,303.9,240.3,296.7,240.3z"/>
</g>
</svg>
