<?xml version="1.0" encoding="utf-8"?>
<!-- Generator: Adobe Illustrator 20.0.0, SVG Export Plug-In . SVG Version: 6.00 Build 0)  -->
<svg version="1.1" id="Layer_1" xmlns="http://www.w3.org/2000/svg" xmlns:xlink="http://www.w3.org/1999/xlink" x="0px" y="0px"
	 viewBox="0 0 524 512" style="enable-background:new 0 0 524 512;" xml:space="preserve">
<style type="text/css">
	.st0{fill:#FFFFFF;}
	.st1{fill:#D1D1D1;}
	.st2{fill:#B2B2B2;}
	.st3{fill:#0E0C0F;}
	.st4{fill:#E6E6E6;}
	.st5{fill:#CE5B53;}
	.st6{fill:#B83D2D;}
</style>
<path class="st0" d="M473.9,79.4H50.1c-14.6,0-26.5,11.9-26.5,26.5v292.4h476.7V105.9C500.3,91.3,488.5,79.4,473.9,79.4z"/>
<path class="st1" d="M506.3,432.6H17.7c-9.8,0-17.7-7.9-17.7-17.7v-8.8c0-4.9,4-8.8,8.8-8.8h506.3c4.9,0,8.8,4,8.8,8.8v8.8
	C524,424.6,516.1,432.6,506.3,432.6z"/>
<path class="st2" d="M291.9,414.9h-59.7c-3.3,0-6.4-1.9-7.9-4.9l-6.4-12.8h88.3l-6.4,12.8C298.3,413,295.2,414.9,291.9,414.9z"/>
<path class="st3" d="M473.9,361.9c0,4.9-4,8.8-8.8,8.8H59c-4.9,0-8.8-4-8.8-8.8V114.8c0-4.9,4-8.8,8.8-8.8h406c4.9,0,8.8,4,8.8,8.8
	L473.9,361.9L473.9,361.9z"/>
<g>
	<g>
		<path class="st4" d="M210.8,211.3c5.5,0.9,8.9,1.4,13.5,6s5.2,8,6,13.5c1.1,6.8,2.5,16,12.3,25.8c9.8,9.8,19,11.2,25.8,12.3
			c5.5,0.9,8.9,1.4,13.5,6s5.2,8,6.1,13.5c1.1,6.8,2.5,16,12.3,25.8s19,11.2,25.8,12.3c5.5,0.9,8.9,1.4,13.5,6.1l15.7-15.7
			c-9.8-9.8-19-11.2-25.8-12.3c-5.5-0.9-8.9-1.4-13.5-6.1c-4.6-4.6-5.2-8-6.1-13.5c-1.1-6.8-2.5-16-12.3-25.8
			c-9.8-9.8-19-11.2-25.8-12.3c-5.5-0.9-8.9-1.4-13.5-6s-5.2-8-6-13.5c-1.1-6.8-2.5-16-12.3-25.8s-19-11.2-25.8-12.3
			c-5.5-0.9-8.9-1.4-13.5-6s-5.2-8-6-13.5c-1.1-6.8-2.5-16-12.3-25.8l-15.7,15.7c4.6,4.6,5.2,8,6,13.5c1.1,6.8,2.5,16,12.3,25.8
			C194.8,208.8,204.1,210.3,210.8,211.3z"/>
		<path class="st5" d="M226.5,195.6c5.5,0.9,8.9,1.4,13.5,6s5.2,8,6,13.5c1.1,6.8,2.5,16,12.3,25.8s19,11.2,25.8,12.3
			c5.5,0.9,8.9,1.4,13.5,6s5.2,8,6.1,13.5c1.1,6.8,2.5,16,12.3,25.8s19,11.2,25.8,12.3c5.5,0.9,8.9,1.4,13.5,6.1l15.7-15.7
			c-9.8-9.8-19-11.2-25.8-12.3c-5.5-0.9-8.9-1.4-13.5-6.1c-4.6-4.6-5.2-8-6.1-13.5c-1.1-6.8-2.5-16-12.3-25.8s-19-11.2-25.8-12.3
			c-5.5-0.9-8.9-1.4-13.5-6s-5.2-8-6-13.5c-1.1-6.8-2.5-16-12.3-25.8s-19-11.2-25.8-12.3c-5.5-0.9-8.9-1.4-13.5-6s-5.2-8-6-13.5
			c-1.1-6.8-2.5-16-12.3-25.8L182.4,144c4.6,4.6,5.2,8,6,13.5c1.1,6.8,2.5,16,12.3,25.8S219.8,194.5,226.5,195.6z"/>
		<g>
			<path class="st5" d="M339.6,332.7c-9.8-9.8-19-11.2-25.8-12.3c-5.5-0.9-8.9-1.4-13.5-6.1c-4.6-4.6-5.2-8-6.1-13.5
				c-1.1-6.8-2.5-16-12.3-25.8s-19-11.2-25.8-12.3c-5.5-0.9-8.9-1.4-13.5-6s-5.2-8-6-13.5c-1.1-6.8-2.5-16-12.3-25.8
				s-19-11.2-25.8-12.3c-5.5-0.9-8.9-1.4-13.5-6s-5.2-8-6-13.5c-1.1-6.8-2.5-16-12.3-25.8L151,175.5c4.6,4.6,5.2,8,6,13.5
				c1.1,6.8,2.5,16,12.3,25.8s19,11.2,25.8,12.3c5.5,0.9,8.9,1.4,13.5,6s5.2,8,6,13.5c1.1,6.8,2.5,16,12.3,25.8s19,11.2,25.8,12.3
				c5.5,0.9,8.9,1.4,13.5,6s5.2,8,6.1,13.5c1.1,6.8,2.5,16,12.3,25.8s19,11.2,25.8,12.3c5.5,0.9,8.9,1.4,13.5,6.1L339.6,332.7z"/>
		</g>
	</g>
	<path class="st6" d="M313.4,243.6c-5.4-5.4-10.6-8.2-15.3-9.9c-3.7,6.4-4.6,12.2-5.3,16.8c-0.9,5.5-1.4,8.9-6,13.5
		c-4.6,4.6-8,5.2-13.5,6c-6.8,1.1-16,2.5-25.8,12.3c-0.4,0.4-0.7,0.7-1.1,1.1c2.3,0.6,4.5,0.9,6.4,1.2c5.5,0.9,8.9,1.4,13.5,6
		c1.1,1.1,2,2.2,2.7,3.2c2.3-1,4.7-1.4,7.7-1.9c6.8-1.1,16-2.5,25.8-12.3s11.2-19,12.3-25.8c0.4-2.8,0.8-5,1.6-7.2
		C315.5,245.7,314.5,244.7,313.4,243.6z"/>
	<path class="st6" d="M266.3,205.6c0.1-0.5,0.2-1,0.2-1.5c-1.5-5.4-4.3-11.7-10.8-18.1c-1.4-1.4-2.8-2.6-4.2-3.7
		c-5.3,7.5-6.4,14.5-7.3,19.9c-0.9,5.5-1.4,8.9-6,13.5s-8,5.2-13.5,6c-5.6,0.9-12.8,2-20.7,7.9c1.5,0.8,2.9,1.9,4.6,3.6
		c4.6,4.6,5.2,8,6,13.5c0.1,0.8,0.3,1.7,0.4,2.7c4.4-4.3,7.7-4.8,13.1-5.7c6.8-1.1,16-2.5,25.8-12.3
		C263.8,221.6,265.2,212.3,266.3,205.6z"/>
	<path class="st4" d="M234,288.5c0.9-5.5,1.4-8.9,6-13.5s8-5.2,13.5-6c6.8-1.1,16-2.5,25.8-12.3c9.8-9.8,11.2-19,12.3-25.8
		c0.9-5.5,1.4-8.9,6-13.5s8-5.2,13.5-6.1c6.8-1.1,16-2.5,25.8-12.3s11.2-19,12.3-25.8c0.9-5.5,1.4-8.9,6.1-13.5L339.6,144
		c-9.8,9.8-11.2,19-12.3,25.8c-0.9,5.5-1.4,8.9-6.1,13.5c-4.6,4.6-8,5.2-13.5,6.1c-6.8,1.1-16,2.5-25.8,12.3s-11.2,19-12.3,25.8
		c-0.9,5.5-1.4,8.9-6,13.5s-8,5.2-13.5,6c-6.8,1.1-16,2.5-25.8,12.3c-9.8,9.8-11.2,19-12.3,25.8c-0.9,5.5-1.4,8.9-6,13.5
		s-8,5.2-13.5,6c-6.8,1.1-16,2.5-25.8,12.3l15.7,15.7c4.6-4.6,8-5.2,13.5-6c6.8-1.1,16-2.5,25.8-12.3
		C231.5,304.6,233,295.3,234,288.5z"/>
	<path class="st5" d="M218.3,272.8c0.9-5.5,1.4-8.9,6-13.5s8-5.2,13.5-6c6.8-1.1,16-2.5,25.8-12.3c9.8-9.8,11.2-19,12.3-25.8
		c0.9-5.5,1.4-8.9,6-13.5s8-5.2,13.5-6.1c6.8-1.1,16-2.5,25.8-12.3s11.2-19,12.3-25.8c0.9-5.5,1.4-8.9,6.1-13.5l-15.7-15.7
		c-9.8,9.8-11.2,19-12.3,25.8c-0.9,5.5-1.4,8.9-6.1,13.5c-4.6,4.6-8,5.2-13.5,6.1c-6.8,1.1-16,2.5-25.8,12.3s-11.2,19-12.3,25.8
		c-0.9,5.5-1.4,8.9-6,13.5s-8,5.2-13.5,6c-6.8,1.1-16,2.5-25.8,12.3s-11.2,19-12.3,25.8c-0.9,5.5-1.4,8.9-6,13.5s-8,5.2-13.5,6
		c-6.8,1.1-16,2.5-25.8,12.3l15.7,15.7c4.6-4.6,8-5.2,13.5-6c6.8-1.1,16-2.5,25.8-12.3C215.8,288.8,217.2,279.6,218.3,272.8z"/>
	<g>
		<path class="st5" d="M355.3,159.8c-9.8,9.8-11.2,19-12.3,25.8c-0.9,5.5-1.4,8.9-6.1,13.5c-4.6,4.6-8,5.2-13.5,6.1
			c-6.8,1.1-16,2.5-25.8,12.3s-11.2,19-12.3,25.8c-0.9,5.5-1.4,8.9-6,13.5s-8,5.2-13.5,6c-6.8,1.1-16,2.5-25.8,12.3
			s-11.2,19-12.3,25.8c-0.9,5.5-1.4,8.9-6,13.5s-8,5.2-13.5,6c-6.8,1.1-16,2.5-25.8,12.3l15.7,15.7c4.6-4.6,8-5.2,13.5-6
			c6.8-1.1,16-2.5,25.8-12.3s11.2-19,12.3-25.8c0.9-5.5,1.4-8.9,6-13.5s8-5.2,13.5-6c6.8-1.1,16-2.5,25.8-12.3s11.2-19,12.3-25.8
			c0.9-5.5,1.4-8.9,6-13.5s8-5.2,13.5-6.1c6.8-1.1,16-2.5,25.8-12.3s11.2-19,12.3-25.8c0.9-5.5,1.4-8.9,6.1-13.5L355.3,159.8z"/>
	</g>
</g>
</svg>
