<?xml version="1.0" encoding="utf-8"?>
<!-- Generator: Adobe Illustrator 20.0.0, SVG Export Plug-In . SVG Version: 6.00 Build 0)  -->
<svg version="1.1" id="Layer_1" xmlns="http://www.w3.org/2000/svg" xmlns:xlink="http://www.w3.org/1999/xlink" x="0px" y="0px"
	 viewBox="0 0 480 460" style="enable-background:new 0 0 480 460;" xml:space="preserve">
<style type="text/css">
	.st0{fill:#333130;}
</style>
<path class="st0" d="M464.8,240c9.9-15.1,15.1-32.6,15.1-50.5c0-39.4-25.3-75.9-64.3-93c-14.4-6.3-25.5-18.5-29.7-32.6
	c-10.7-36-35-56.5-74.2-62.6c-32.7-5.1-63.3,6.2-80,29.4c-6.6,9.1-21.7,12.9-36.6,9c-11.8-3.1-24.1-4.7-36.6-4.8c-0.5,0-0.9,0-1.3,0
	c-55.2,0-100.9,31.5-108.7,75.2c-2.7,15.2-1.1,30.4,5,45.1c7.2,17.5,0.7,36.3-17.4,50.4c-23.2,18-36,41.9-36,67.3
	c0,33.6,45.8,57.6,84.1,71.7c23.7,8.7,39.2,25.5,42.7,46l0.2,1.2c7.3,40.3,47.1,68.5,95.5,68.5c1.6,0,3.2,0,4.9-0.1
	c36.7-1.5,71.9-18,94.1-44.3c6.8-8.1,17.9-12.6,27.5-11.1c16.7,2.5,33.7,1.2,50.6-4.1c39.2-12.2,69.1-45.5,74.4-83
	c2.7-19.2-0.7-38-9.9-54.4C460,255.9,460.3,247,464.8,240z M288.3,349.3c-63.4,0-115-51.6-115-115s51.6-115,115-115
	s115,51.6,115,115C403.3,297.7,351.7,349.3,288.3,349.3z"/>
</svg>
