<?xml version="1.0" encoding="utf-8"?>
<!-- Generator: Adobe Illustrator 20.0.0, SVG Export Plug-In . SVG Version: 6.00 Build 0)  -->
<svg version="1.1" id="Layer_1" xmlns="http://www.w3.org/2000/svg" xmlns:xlink="http://www.w3.org/1999/xlink" x="0px" y="0px"
	 viewBox="0 0 524 512" style="enable-background:new 0 0 524 512;" xml:space="preserve">
<style type="text/css">
	.st0{fill:#0E0C0F;}
	.st1{fill:#B7B7B7;}
	.st2{fill:#E6E6E6;}
	.st3{fill:#CE5B53;}
	.st4{fill:#B83D2D;}
</style>
<circle class="st0" cx="239.5" cy="241.3" r="201.1"/>
<path class="st1" d="M100.7,386.8c36.1,34.4,85,55.6,138.8,55.6c53.8,0,102.7-21.2,138.8-55.6c-21.8-80-86.7-84.4-105.5-104
	l-2.7-12.9c28.6-13.4,48.8-45.1,48.8-82c0-49.1-35.6-88.9-79.4-88.9s-79.4,39.8-79.4,88.9c0,37.3,20.5,69.1,49.5,82.3l-2.4,11.4
	C190.1,302.2,123,305.7,100.7,386.8z"/>
<g>
	<g>
		<path class="st2" d="M329.1,340.3c5.4,0.8,8.6,1.4,13,5.8s4.9,7.7,5.8,13c1,6.5,2.4,15.4,11.8,24.8c9.4,9.4,18.3,10.7,24.8,11.8
			c5.4,0.8,8.6,1.4,13,5.8s5,7.7,5.8,13c1,6.5,2.4,15.4,11.8,24.8c9.4,9.4,18.3,10.7,24.8,11.8c5.4,0.8,8.6,1.4,13,5.8l15.1-15.1
			c-9.4-9.4-18.3-10.7-24.8-11.8c-5.4-0.8-8.6-1.4-13-5.8c-4.5-4.5-5-7.7-5.8-13c-1-6.5-2.4-15.4-11.8-24.8
			c-9.4-9.4-18.3-10.7-24.8-11.8c-5.4-0.8-8.6-1.4-13-5.8s-4.9-7.7-5.8-13c-1-6.5-2.4-15.4-11.8-24.8c-9.4-9.4-18.3-10.7-24.8-11.8
			c-5.4-0.8-8.6-1.4-13-5.8s-4.9-7.7-5.8-13c-1-6.5-2.4-15.4-11.8-24.8l-15.1,15.1c4.5,4.5,4.9,7.7,5.8,13c1,6.5,2.4,15.4,11.8,24.8
			C313.8,337.9,322.6,339.3,329.1,340.3z"/>
		<path class="st3" d="M344.2,325.2c5.4,0.8,8.6,1.4,13,5.8c4.5,4.5,4.9,7.7,5.8,13c1,6.5,2.4,15.4,11.8,24.8
			c9.4,9.4,18.3,10.7,24.8,11.8c5.4,0.8,8.6,1.4,13,5.8s5,7.7,5.8,13c1,6.5,2.4,15.4,11.8,24.8c9.4,9.4,18.3,10.7,24.8,11.8
			c5.4,0.8,8.6,1.4,13,5.8l15.1-15.1c-9.4-9.4-18.3-10.7-24.8-11.8c-5.4-0.8-8.6-1.4-13-5.8s-5-7.7-5.8-13
			c-1-6.5-2.4-15.4-11.8-24.8c-9.4-9.4-18.3-10.7-24.8-11.8c-5.4-0.8-8.6-1.4-13-5.8s-4.9-7.7-5.8-13c-1-6.5-2.4-15.4-11.8-24.8
			c-9.4-9.4-18.3-10.7-24.8-11.8c-5.4-0.8-8.6-1.4-13-5.8s-4.9-7.7-5.8-13c-1-6.5-2.4-15.4-11.8-24.8l-15.1,15.1
			c4.5,4.5,4.9,7.7,5.8,13c1,6.5,2.4,15.4,11.8,24.8C328.9,322.8,337.7,324.2,344.2,325.2z"/>
		<g>
			<path class="st3" d="M452.8,456.9c-9.4-9.4-18.3-10.7-24.8-11.8c-5.4-0.8-8.6-1.4-13-5.8c-4.5-4.5-5-7.7-5.8-13
				c-1-6.5-2.4-15.4-11.8-24.8c-9.4-9.4-18.3-10.7-24.8-11.8c-5.4-0.8-8.6-1.4-13-5.8s-4.9-7.7-5.8-13c-1-6.5-2.4-15.4-11.8-24.8
				c-9.4-9.4-18.3-10.7-24.8-11.8c-5.4-0.8-8.6-1.4-13-5.8s-4.9-7.7-5.8-13c-1-6.5-2.4-15.4-11.8-24.8l-15.1,15.1
				c4.5,4.5,4.9,7.7,5.8,13c1,6.5,2.4,15.4,11.8,24.8c9.4,9.4,18.3,10.7,24.8,11.8c5.4,0.8,8.6,1.4,13,5.8s4.9,7.7,5.8,13
				c1,6.5,2.4,15.4,11.8,24.8c9.4,9.4,18.3,10.7,24.8,11.8c5.4,0.8,8.6,1.4,13,5.8s5,7.7,5.8,13c1,6.5,2.4,15.4,11.8,24.8
				c9.4,9.4,18.3,10.7,24.8,11.8c5.4,0.8,8.6,1.4,13,5.8L452.8,456.9z"/>
		</g>
	</g>
	<path class="st4" d="M427.6,371.3c-5.1-5.1-10.2-7.9-14.7-9.5c-3.5,6.1-4.5,11.7-5.1,16.1c-0.8,5.4-1.4,8.6-5.8,13s-7.7,4.9-13,5.8
		c-6.5,1-15.4,2.4-24.8,11.8c-0.3,0.3-0.7,0.7-1,1c2.2,0.6,4.2,0.9,6.2,1.1c5.4,0.8,8.6,1.4,13,5.8c1,1,1.9,2.1,2.6,3.1
		c2.2-0.9,4.5-1.4,7.4-1.8c6.5-1,15.4-2.4,24.8-11.8c9.4-9.4,10.7-18.3,11.8-24.8c0.5-2.7,0.8-4.8,1.6-6.9
		C429.7,373.3,428.7,372.3,427.6,371.3z"/>
	<path class="st4" d="M382.4,334.8c0.1-0.5,0.1-1,0.2-1.5c-1.4-5.3-4.1-11.2-10.3-17.4c-1.4-1.4-2.6-2.5-4-3.5
		c-5.1,7.2-6.2,13.9-7,19.1c-0.8,5.4-1.4,8.6-5.8,13s-7.7,4.9-13,5.8c-5.4,0.8-12.3,1.9-19.9,7.5c1.4,0.8,2.9,1.8,4.3,3.4
		c4.5,4.5,4.9,7.7,5.8,13c0.1,0.8,0.2,1.7,0.5,2.5c4.2-4.1,7.4-4.6,12.6-5.5c6.5-1,15.4-2.4,24.8-11.8
		C380,350.1,381.4,341.3,382.4,334.8z"/>
	<path class="st2" d="M351.4,414.5c0.8-5.4,1.4-8.6,5.8-13c4.5-4.5,7.7-4.9,13-5.8c6.5-1,15.4-2.4,24.8-11.8
		c9.4-9.4,10.7-18.3,11.8-24.8c0.8-5.4,1.4-8.6,5.8-13s7.7-5,13-5.8c6.5-1,15.4-2.4,24.8-11.8c9.4-9.4,10.7-18.3,11.8-24.8
		c0.8-5.4,1.4-8.6,5.8-13L453,275.5c-9.4,9.4-10.7,18.3-11.8,24.8c-0.8,5.4-1.4,8.6-5.8,13s-7.7,5-13,5.8c-6.5,1-15.4,2.4-24.8,11.8
		c-9.4,9.4-10.7,18.3-11.8,24.8c-0.8,5.4-1.4,8.6-5.8,13s-7.7,4.9-13,5.8c-6.5,1-15.4,2.4-24.8,11.8c-9.4,9.4-10.7,18.3-11.8,24.8
		c-0.8,5.4-1.4,8.6-5.8,13s-7.7,4.9-13,5.8c-6.5,1-15.4,2.4-24.8,11.8l15.1,15.1c4.5-4.5,7.7-4.9,13-5.8c6.5-1,15.4-2.4,24.8-11.8
		C349,429.9,350.4,421,351.4,414.5z"/>
	<path class="st3" d="M336.3,399.4c0.8-5.4,1.4-8.6,5.8-13s7.7-4.9,13-5.8c6.5-1,15.4-2.4,24.8-11.8c9.4-9.4,10.7-18.3,11.8-24.8
		c0.8-5.4,1.4-8.6,5.8-13c4.5-4.5,7.7-5,13-5.8c6.5-1,15.4-2.4,24.8-11.8c9.4-9.4,10.7-18.3,11.8-24.8c0.8-5.4,1.4-8.6,5.8-13
		l-15.1-15.1c-9.4,9.4-10.7,18.3-11.8,24.8c-0.8,5.4-1.4,8.6-5.8,13s-7.7,5-13,5.8c-6.5,1-15.4,2.4-24.8,11.8
		c-9.4,9.4-10.7,18.3-11.8,24.8c-0.8,5.4-1.4,8.6-5.8,13s-7.7,4.9-13,5.8c-6.5,1-15.4,2.4-24.8,11.8c-9.4,9.4-10.7,18.3-11.8,24.8
		c-0.8,5.4-1.4,8.6-5.8,13s-7.7,4.9-13,5.8c-6.5,1-15.4,2.4-24.8,11.8l15.1,15.1c4.5-4.5,7.7-4.9,13-5.8c6.5-1,15.4-2.4,24.8-11.8
		C333.9,414.8,335.3,405.9,336.3,399.4z"/>
	<g>
		<path class="st3" d="M468,290.8c-9.4,9.4-10.7,18.3-11.8,24.8c-0.8,5.4-1.4,8.6-5.8,13s-7.7,5-13,5.8c-6.5,1-15.4,2.4-24.8,11.8
			c-9.4,9.4-10.7,18.3-11.8,24.8c-0.8,5.4-1.4,8.6-5.8,13s-7.7,4.9-13,5.8c-6.5,1-15.4,2.4-24.8,11.8c-9.4,9.4-10.7,18.3-11.8,24.8
			c-0.8,5.4-1.4,8.6-5.8,13s-7.7,4.9-13,5.8c-6.5,1-15.4,2.4-24.8,11.8l15.1,15.1c4.5-4.5,7.7-4.9,13-5.8c6.5-1,15.4-2.4,24.8-11.8
			c9.4-9.4,10.7-18.3,11.8-24.8c0.8-5.4,1.4-8.6,5.8-13c4.5-4.5,7.7-4.9,13-5.8c6.5-1,15.4-2.4,24.8-11.8
			c9.4-9.4,10.7-18.3,11.8-24.8c0.8-5.4,1.4-8.6,5.8-13s7.7-5,13-5.8c6.5-1,15.4-2.4,24.8-11.8c9.4-9.4,10.7-18.3,11.8-24.8
			c0.8-5.4,1.4-8.6,5.8-13L468,290.8z"/>
	</g>
</g>
</svg>
