<?xml version="1.0" encoding="utf-8"?>
<!-- Generator: Adobe Illustrator 20.0.0, SVG Export Plug-In . SVG Version: 6.00 Build 0)  -->
<svg version="1.1" id="Layer_1" xmlns="http://www.w3.org/2000/svg" xmlns:xlink="http://www.w3.org/1999/xlink" x="0px" y="0px"
	 viewBox="0 0 524 512" style="enable-background:new 0 0 524 512;" xml:space="preserve">
<style type="text/css">
	.st0{fill:#0E0C0F;}
	.st1{fill:#B7B7B7;}
	.st2{fill:#FFFFFF;}
	.st3{fill:#F0C854;}
	.st4{fill:#DDB84E;}
	.st5{fill:#F5D98A;}
</style>
<circle class="st0" cx="239.5" cy="241.3" r="201.1"/>
<path class="st1" d="M100.7,386.8c36.1,34.4,85,55.6,138.8,55.6c53.8,0,102.7-21.2,138.8-55.6c-21.8-80-86.7-84.4-105.5-104
	l-2.7-12.9c28.6-13.4,48.8-45.1,48.8-82c0-49.1-35.6-88.9-79.4-88.9s-79.4,39.8-79.4,88.9c0,37.3,20.5,69.1,49.5,82.3l-2.4,11.4
	C190.1,302.2,123,305.7,100.7,386.8z"/>
<g>
	<path class="st2" d="M476.4,374.5c4.4-6.7,6.7-14.4,6.7-22.4c0-17.5-11.2-33.6-28.5-41.2c-6.4-2.8-11.3-8.2-13.2-14.5
		c-4.7-16-15.5-25.1-32.9-27.8c-14.5-2.3-28.1,2.7-35.5,13c-2.9,4.1-9.6,5.7-16.2,4c-5.2-1.4-10.7-2.1-16.2-2.1c-0.2,0-0.4,0-0.6,0
		c-24.5,0-44.7,13.9-48.2,33.3c-1.2,6.7-0.5,13.5,2.2,20c3.2,7.7,0.3,16.1-7.7,22.3c-10.3,8-16,18.6-16,29.8
		c0,14.9,20.3,25.5,37.3,31.8c10.5,3.9,17.4,11.3,18.9,20.4l0.1,0.5c3.3,17.9,20.9,30.4,42.3,30.4c0.7,0,1.4,0,2.2,0
		c16.3-0.6,31.9-8,41.7-19.6c3-3.6,7.9-5.6,12.2-4.9c7.4,1.1,15,0.5,22.4-1.8c17.4-5.4,30.6-20.2,33-36.8c1.2-8.5-0.3-16.8-4.4-24.1
		C474.2,381.5,474.3,377.5,476.4,374.5z"/>
	<path class="st3" d="M398.1,422.9c-28.1,0-51-22.9-51-51c0-28.1,22.9-51,51-51s51,22.9,51,51C449.1,400,426.2,422.9,398.1,422.9z"
		/>
	<path class="st4" d="M405.6,415.3c-28.1,0-51-22.9-51-51c0-12.1,4.3-23.3,11.4-32.1c-11.5,9.4-18.9,23.6-18.9,39.6
		c0,28.1,22.9,51,51,51c16,0,30.3-7.4,39.6-18.9C428.9,411.1,417.8,415.3,405.6,415.3z"/>
	<path class="st5" d="M411,371.9c-7.1,0-12.9-5.8-12.9-12.9s5.8-12.9,12.9-12.9c7.1,0,12.9,5.8,12.9,12.9
		C423.9,366.1,418.1,371.9,411,371.9z"/>
</g>
</svg>
